<svg width="18" height="18" viewBox="0 0 18 18" fill="none" xmlns="http://www.w3.org/2000/svg">
<g clip-path="url(#clip0_162_31784)">
<path fill-rule="evenodd" clip-rule="evenodd" d="M9 0.75C4.44199 0.75 0.75 4.53612 0.75 9.21034C0.75 12.9497 3.1151 16.1178 6.3918 17.2396C6.80203 17.3175 6.95396 17.0578 6.95396 16.8293C6.95396 16.6268 6.94889 16.097 6.94383 15.3907C4.64963 15.8997 4.16344 14.2585 4.16344 14.2585C3.78867 13.2821 3.24678 13.0172 3.24678 13.0172C2.49724 12.4927 3.30249 12.5031 3.30249 12.5031C4.12799 12.5654 4.5686 13.3756 4.5686 13.3756C5.30295 14.6688 6.49816 14.2949 6.96915 14.0767C7.04512 13.5314 7.25783 13.1575 7.49079 12.9445C5.66252 12.7368 3.73803 12.0097 3.73803 8.76889C3.73803 7.84443 4.05709 7.09136 4.58886 6.49929C4.50276 6.28116 4.21915 5.42422 4.66482 4.26086C4.66482 4.26086 5.35866 4.03234 6.9337 5.12819C7.59208 4.94122 8.29604 4.84773 9 4.84254C9.6989 4.84773 10.4079 4.94122 11.0663 5.12819C12.6413 4.03234 13.3352 4.26086 13.3352 4.26086C13.7859 5.42422 13.5023 6.28635 13.4162 6.49929C13.9429 7.09136 14.262 7.84443 14.262 8.76889C14.262 12.0201 12.3324 12.7316 10.494 12.9445C10.7878 13.2042 11.0562 13.7236 11.0562 14.513C11.0562 15.6452 11.046 16.5541 11.046 16.8345C11.046 17.063 11.1929 17.3227 11.6133 17.2396C14.89 16.1178 17.25 12.9497 17.25 9.21553C17.25 4.53612 13.558 0.75 9 0.75Z" fill="#808080"/>
</g>
<defs>
<clipPath id="clip0_162_31784">
<rect width="18" height="18" fill="white"/>
</clipPath>
</defs>
</svg>
