<svg width="18" height="18" viewBox="0 0 18 18" fill="none" xmlns="http://www.w3.org/2000/svg">
<g clip-path="url(#clip0_162_31783)">
<path d="M16.0275 0.75H1.965C1.2975 0.75 0.75 1.2825 0.75 1.935V16.0575C0.75 16.7175 1.2975 17.25 1.965 17.25H16.0275C16.7025 17.25 17.25 16.7175 17.25 16.0575V1.935C17.25 1.2825 16.7025 0.75 16.0275 0.75ZM5.6475 14.8125H3.195V6.9375H5.6475V14.8125ZM4.4175 5.8575C3.6375 5.8575 3 5.22 3 4.44C3 3.66 3.63 3.0225 4.4175 3.0225C5.1975 3.0225 5.835 3.66 5.835 4.44C5.8425 5.22 5.205 5.8575 4.4175 5.8575ZM14.8125 14.8125H12.3675V10.9875C12.3675 10.0725 12.3525 8.9025 11.0925 8.9025C9.8175 8.9025 9.6225 9.9 9.6225 10.9275V14.82H7.1775V6.945H9.525V8.0175H9.555C9.885 7.395 10.68 6.7425 11.8725 6.7425C14.3475 6.7425 14.805 8.37 14.805 10.4925V14.8125H14.8125Z" fill="#808080"/>
</g>
<defs>
<clipPath id="clip0_162_31783">
<rect width="18" height="18" fill="white"/>
</clipPath>
</defs>
</svg>
